<?xml version="1.0" encoding="UTF-8"?><svg id="Calque_1" xmlns="http://www.w3.org/2000/svg" viewBox="0 0 160 160"><defs><style>.cls-1{fill:#690;stroke:#690;}.cls-2{fill:#f90;stroke:#f90;}.cls-3{fill:none;}</style></defs><rect class="cls-3" width="160" height="160"/><path class="cls-1" d="M71.5,42.81c-12.04,20.7-18.3,36.59-35.63,49.11,16.37-.96,27.49-8.96,41.89-37.08,11-21.23,16.89-30.18,31.78-42.85-15.91,1.02-24.4,6.11-38.04,30.82Z"/><path class="cls-1" d="M97.02,79.41c-9.58-17.1-12.07-26.14-4.33-39.96,.35,12,12.53,31.89,36.59,69.82,4.81,7.59,7.22,23.59,0,32.74-1.06-13.55-9.21-28.28-32.26-62.59Z"/><path class="cls-2" d="M63.32,91.93l16.85-28.41,16.85,28.41H63.32Z"/><path class="cls-1" d="M35.87,98.19c-14.13-.22-21.55-1.31-33.22-6.26,7.11,11.46,14.12,15.56,33.22,17.82h44.78c14.44,.48,24.07,1.93,31.78,5.78-5.3-9.15-13-17.33-37.08-17.33H35.87Z"/></svg>